{"asset":{"version":"2.0","generator":"Blockbench 5.1.4 glTF exporter"},"scenes":[{"nodes":[0,1,2],"name":"blockbench_export"}],"scene":0,"nodes":[{"translation":[0,0.875,0],"name":"mesh","mesh":0},{"rotation":[-0.8767267557075077,0,0,0.48098876891938774],"translation":[0.9375,0.6875,-0.203125],"name":"pyramid","mesh":1},{"rotation":[-0.8767267557075077,0,0,0.48098876891938774],"translation":[-0.96875,0.6875,-0.203125],"name":"pyramid","mesh":2}],"bufferViews":[{"buffer":0,"byteOffset":0,"byteLength":288,"target":34962,"byteStride":12},{"buffer":0,"byteOffset":288,"byteLength":288,"target":34962,"byteStride":12},{"buffer":0,"byteOffset":576,"byteLength":192,"target":34962,"byteStride":8},{"buffer":0,"byteOffset":768,"byteLength":72,"target":34963},{"buffer":0,"byteOffset":840,"byteLength":192,"target":34962,"byteStride":12},{"buffer":0,"byteOffset":1032,"byteLength":192,"target":34962,"byteStride":12},{"buffer":0,"byteOffset":1224,"byteLength":128,"target":34962,"byteStride":8},{"buffer":0,"byteOffset":1352,"byteLength":36,"target":34963},{"buffer":0,"byteOffset":1388,"byteLength":192,"target":34962,"byteStride":12},{"buffer":0,"byteOffset":1580,"byteLength":192,"target":34962,"byteStride":12},{"buffer":0,"byteOffset":1772,"byteLength":128,"target":34962,"byteStride":8},{"buffer":0,"byteOffset":1900,"byteLength":36,"target":34963}],"buffers":[{"byteLength":1936,"uri":"data:application/octet-stream;base64,"}],"accessors":[{"bufferView":0,"componentType":5126,"count":24,"max":[1.109375,0.3125,0.5],"min":[-1.109375,0.1875,-0.5],"type":"VEC3"},{"bufferView":1,"componentType":5126,"count":24,"max":[1,1,1],"min":[-1,-1,-1],"type":"VEC3"},{"bufferView":2,"componentType":5126,"count":24,"max":[0.828125,0.609375],"min":[0,0],"type":"VEC2"},{"bufferView":3,"componentType":5123,"count":36,"max":[23],"min":[0],"type":"SCALAR"},{"bufferView":4,"componentType":5126,"count":16,"max":[0.0625,0.3705601990222931,0.4875333905220032],"min":[-0.03125,-0.804267168045044,-0.025338491424918175],"type":"VEC3"},{"bufferView":5,"componentType":5126,"count":16,"max":[0.9965172410011292,0.8169525265693665,0.8564621210098267],"min":[-0.9965172410011292,-0.5162098407745361,-0.9989439845085144],"type":"VEC3"},{"bufferView":6,"componentType":5126,"count":16,"max":[0.9661256074905396,0.6568013429641724],"min":[0,0],"type":"VEC2"},{"bufferView":7,"componentType":5123,"count":18,"max":[15],"min":[0],"type":"SCALAR"},{"bufferView":8,"componentType":5126,"count":16,"max":[0.0625,0.3705601990222931,0.4875333905220032],"min":[-0.03125,-0.804267168045044,-0.025338491424918175],"type":"VEC3"},{"bufferView":9,"componentType":5126,"count":16,"max":[0.9965172410011292,0.8169525265693665,0.8564621210098267],"min":[-0.9965172410011292,-0.5162098407745361,-0.9989439845085144],"type":"VEC3"},{"bufferView":10,"componentType":5126,"count":16,"max":[0.9661256074905396,0.6568013429641724],"min":[0,0],"type":"VEC2"},{"bufferView":11,"componentType":5123,"count":18,"max":[15],"min":[0],"type":"SCALAR"}],"materials":[{"pbrMetallicRoughness":{"metallicFactor":0,"roughnessFactor":1,"baseColorTexture":{"index":0}},"alphaMode":"MASK","alphaCutoff":0.05,"doubleSided":true},{"pbrMetallicRoughness":{"metallicFactor":0,"roughnessFactor":1,"baseColorTexture":{"index":1}},"alphaMode":"MASK","alphaCutoff":0.05,"doubleSided":true},{"pbrMetallicRoughness":{"metallicFactor":0,"roughnessFactor":1,"baseColorTexture":{"index":2}},"alphaMode":"MASK","alphaCutoff":0.05,"doubleSided":true}],"textures":[{"sampler":0,"source":0,"name":"texture"},{"sampler":1,"source":1,"name":"texture"},{"sampler":2,"source":2,"name":"texture"}],"samplers":[{"magFilter":9728,"minFilter":9728,"wrapS":33071,"wrapT":33071},{"magFilter":9728,"minFilter":9728,"wrapS":33071,"wrapT":33071},{"magFilter":9728,"minFilter":9728,"wrapS":33071,"wrapT":33071}],"images":[{"mimeType":"image/png","uri":"data:image/png;base64,"},{"mimeType":"image/png","uri":"data:image/png;base64,"},{"mimeType":"image/png","uri":"data:image/png;base64,"}],"meshes":[{"primitives":[{"mode":4,"attributes":{"POSITION":0,"NORMAL":1,"TEXCOORD_0":2},"indices":3,"material":0}]},{"primitives":[{"mode":4,"attributes":{"POSITION":4,"NORMAL":5,"TEXCOORD_0":6},"indices":7,"material":1}]},{"primitives":[{"mode":4,"attributes":{"POSITION":8,"NORMAL":9,"TEXCOORD_0":10},"indices":11,"material":2}]}]}