{"asset":{"version":"2.0","generator":"Blockbench 5.1.4 glTF exporter"},"scenes":[{"nodes":[0],"name":"blockbench_export"}],"scene":0,"nodes":[{"translation":[0,0,-6.25],"name":"mesh","mesh":0}],"bufferViews":[{"buffer":0,"byteOffset":0,"byteLength":7488,"target":34962,"byteStride":12},{"buffer":0,"byteOffset":7488,"byteLength":7488,"target":34962,"byteStride":12},{"buffer":0,"byteOffset":14976,"byteLength":4992,"target":34962,"byteStride":8},{"buffer":0,"byteOffset":19968,"byteLength":1872,"target":34963}],"buffers":[{"byteLength":21840,"uri":"data:application/octet-stream;base64,"}],"accessors":[{"bufferView":0,"componentType":5126,"count":624,"max":[1.381250023841858,5.568749904632568,7.75209903717041],"min":[-1.381250023841858,0,-2.125],"type":"VEC3"},{"bufferView":1,"componentType":5126,"count":624,"max":[1,1,1],"min":[-1,-1,-1],"type":"VEC3"},{"bufferView":2,"componentType":5126,"count":624,"max":[1,1],"min":[0,0],"type":"VEC2"},{"bufferView":3,"componentType":5123,"count":936,"max":[623],"min":[0],"type":"SCALAR"}],"materials":[{"pbrMetallicRoughness":{"metallicFactor":0,"roughnessFactor":1},"alphaMode":"MASK","alphaCutoff":0.05,"doubleSided":true}],"meshes":[{"primitives":[{"mode":4,"attributes":{"POSITION":0,"NORMAL":1,"TEXCOORD_0":2},"indices":3,"material":0}]}]}