{"asset":{"version":"2.0","generator":"Blockbench 5.1.4 glTF exporter"},"scenes":[{"nodes":[1],"name":"blockbench_export"}],"scene":0,"nodes":[{"translation":[0,2.3125,2.8125],"name":"mesh","mesh":0},{"rotation":[0,-1,0,6.123233995736766e-17],"translation":[1.375,2.8125,-1.26875],"name":"Stair top","children":[0]}],"bufferViews":[{"buffer":0,"byteOffset":0,"byteLength":27648,"target":34962,"byteStride":12},{"buffer":0,"byteOffset":27648,"byteLength":27648,"target":34962,"byteStride":12},{"buffer":0,"byteOffset":55296,"byteLength":18432,"target":34962,"byteStride":8},{"buffer":0,"byteOffset":73728,"byteLength":72,"target":34963},{"buffer":0,"byteOffset":73800,"byteLength":2448,"target":34963},{"buffer":0,"byteOffset":76248,"byteLength":72,"target":34963},{"buffer":0,"byteOffset":76320,"byteLength":168,"target":34963},{"buffer":0,"byteOffset":76488,"byteLength":72,"target":34963},{"buffer":0,"byteOffset":76560,"byteLength":168,"target":34963},{"buffer":0,"byteOffset":76728,"byteLength":72,"target":34963},{"buffer":0,"byteOffset":76800,"byteLength":168,"target":34963},{"buffer":0,"byteOffset":76968,"byteLength":72,"target":34963},{"buffer":0,"byteOffset":77040,"byteLength":2976,"target":34963},{"buffer":0,"byteOffset":80016,"byteLength":72,"target":34963},{"buffer":0,"byteOffset":80088,"byteLength":504,"target":34963}],"buffers":[{"byteLength":80592,"uri":"data:application/octet-stream;base64,"}],"accessors":[{"bufferView":0,"componentType":5126,"count":2304,"max":[2.4375,3.2843375205993652,1.1875],"min":[-0.7875000238418579,-0.20000000298023224,-5.6875],"type":"VEC3"},{"bufferView":1,"componentType":5126,"count":2304,"max":[1,1,1],"min":[-1,-1,-1],"type":"VEC3"},{"bufferView":2,"componentType":5126,"count":2304,"max":[0.4948863685131073,0.5],"min":[0,0],"type":"VEC2"},{"bufferView":3,"componentType":5123,"count":36,"max":[23],"min":[0],"type":"SCALAR"},{"bufferView":4,"componentType":5123,"count":1224,"max":[839],"min":[24],"type":"SCALAR"},{"bufferView":5,"componentType":5123,"count":36,"max":[863],"min":[840],"type":"SCALAR"},{"bufferView":6,"componentType":5123,"count":84,"max":[923],"min":[864],"type":"SCALAR"},{"bufferView":7,"componentType":5123,"count":36,"max":[947],"min":[924],"type":"SCALAR"},{"bufferView":8,"componentType":5123,"count":84,"max":[1007],"min":[948],"type":"SCALAR"},{"bufferView":9,"componentType":5123,"count":36,"max":[1031],"min":[1008],"type":"SCALAR"},{"bufferView":10,"componentType":5123,"count":84,"max":[1091],"min":[1032],"type":"SCALAR"},{"bufferView":11,"componentType":5123,"count":36,"max":[1115],"min":[1092],"type":"SCALAR"},{"bufferView":12,"componentType":5123,"count":1488,"max":[2111],"min":[1116],"type":"SCALAR"},{"bufferView":13,"componentType":5123,"count":36,"max":[2135],"min":[2112],"type":"SCALAR"},{"bufferView":14,"componentType":5123,"count":252,"max":[2303],"min":[2136],"type":"SCALAR"}],"materials":[{"pbrMetallicRoughness":{"metallicFactor":0,"roughnessFactor":1,"baseColorTexture":{"index":0}},"alphaMode":"MASK","alphaCutoff":0.05,"doubleSided":true},{"pbrMetallicRoughness":{"metallicFactor":0,"roughnessFactor":1,"baseColorTexture":{"index":1}},"alphaMode":"MASK","alphaCutoff":0.05,"doubleSided":true},{"pbrMetallicRoughness":{"metallicFactor":0,"roughnessFactor":1},"alphaMode":"MASK","alphaCutoff":0.05,"doubleSided":true}],"textures":[{"sampler":0,"source":0,"name":"metal_texture2.jpg"},{"sampler":1,"source":1,"name":"MORMETAL.webp"}],"samplers":[{"magFilter":9728,"minFilter":9728,"wrapS":33071,"wrapT":33071},{"magFilter":9728,"minFilter":9728,"wrapS":33071,"wrapT":33071}],"images":[{"mimeType":"image/png","uri":"data:image/png;base64,"},{"mimeType":"image/png","uri":"data:image/png;base64,"}],"meshes":[{"primitives":[{"mode":4,"attributes":{"POSITION":0,"NORMAL":1,"TEXCOORD_0":2},"indices":3,"material":0},{"mode":4,"attributes":{"POSITION":0,"NORMAL":1,"TEXCOORD_0":2},"indices":4,"material":1},{"mode":4,"attributes":{"POSITION":0,"NORMAL":1,"TEXCOORD_0":2},"indices":5,"material":0},{"mode":4,"attributes":{"POSITION":0,"NORMAL":1,"TEXCOORD_0":2},"indices":6,"material":1},{"mode":4,"attributes":{"POSITION":0,"NORMAL":1,"TEXCOORD_0":2},"indices":7,"material":0},{"mode":4,"attributes":{"POSITION":0,"NORMAL":1,"TEXCOORD_0":2},"indices":8,"material":1},{"mode":4,"attributes":{"POSITION":0,"NORMAL":1,"TEXCOORD_0":2},"indices":9,"material":0},{"mode":4,"attributes":{"POSITION":0,"NORMAL":1,"TEXCOORD_0":2},"indices":10,"material":1},{"mode":4,"attributes":{"POSITION":0,"NORMAL":1,"TEXCOORD_0":2},"indices":11,"material":0},{"mode":4,"attributes":{"POSITION":0,"NORMAL":1,"TEXCOORD_0":2},"indices":12,"material":1},{"mode":4,"attributes":{"POSITION":0,"NORMAL":1,"TEXCOORD_0":2},"indices":13,"material":2},{"mode":4,"attributes":{"POSITION":0,"NORMAL":1,"TEXCOORD_0":2},"indices":14,"material":1}]}]}